<mxfile host="app.diagrams.net" modified="2022-01-19T13:39:25.273Z" agent="5.0 (Windows NT 10.0; Win64; x64) AppleWebKit/537.36 (KHTML, like Gecko) Chrome/97.0.4692.71 Safari/537.36" etag="Wvgpr0X0VFvFSEHAd6fs" version="16.4.0" type="github">
  <diagram id="W2J5nunDsJxdojVfHMGF" name="Page-1">
    <mxGraphModel dx="2004" dy="1116" grid="1" gridSize="10" guides="1" tooltips="1" connect="1" arrows="1" fold="1" page="1" pageScale="1" pageWidth="850" pageHeight="1100" math="0" shadow="0">
      <root>
        <mxCell id="0" />
        <mxCell id="1" parent="0" />
        <mxCell id="zPVBTnU1jTKUKj1PquRD-3" value="&lt;font style=&quot;font-size: 18px&quot;&gt;Audio&lt;/font&gt;" style="edgeStyle=orthogonalEdgeStyle;rounded=0;orthogonalLoop=1;jettySize=auto;html=1;" parent="1" source="zPVBTnU1jTKUKj1PquRD-1" target="zPVBTnU1jTKUKj1PquRD-2" edge="1">
          <mxGeometry x="0.5556" y="-10" relative="1" as="geometry">
            <mxPoint as="offset" />
          </mxGeometry>
        </mxCell>
        <mxCell id="zPVBTnU1jTKUKj1PquRD-5" value="&lt;font style=&quot;font-size: 18px&quot;&gt;Video&lt;/font&gt;" style="edgeStyle=orthogonalEdgeStyle;rounded=0;orthogonalLoop=1;jettySize=auto;html=1;" parent="1" source="zPVBTnU1jTKUKj1PquRD-1" target="zPVBTnU1jTKUKj1PquRD-4" edge="1">
          <mxGeometry x="0.4783" y="10" relative="1" as="geometry">
            <mxPoint as="offset" />
          </mxGeometry>
        </mxCell>
        <mxCell id="zPVBTnU1jTKUKj1PquRD-1" value="StartUp Screen&lt;br&gt;1) Audio&lt;br&gt;2)Video" style="whiteSpace=wrap;html=1;aspect=fixed;" parent="1" vertex="1">
          <mxGeometry x="50" y="501" width="120" height="120" as="geometry" />
        </mxCell>
        <mxCell id="zPVBTnU1jTKUKj1PquRD-7" value="" style="edgeStyle=orthogonalEdgeStyle;rounded=0;orthogonalLoop=1;jettySize=auto;html=1;" parent="1" source="zPVBTnU1jTKUKj1PquRD-2" target="zPVBTnU1jTKUKj1PquRD-6" edge="1">
          <mxGeometry relative="1" as="geometry" />
        </mxCell>
        <mxCell id="zPVBTnU1jTKUKj1PquRD-2" value="AudioList Screen&lt;br&gt;1) Albums&lt;br&gt;2) Artists&lt;br&gt;3) Playlists&lt;br&gt;4) Favourites" style="whiteSpace=wrap;html=1;aspect=fixed;" parent="1" vertex="1">
          <mxGeometry x="230" y="291" width="120" height="120" as="geometry" />
        </mxCell>
        <mxCell id="zPVBTnU1jTKUKj1PquRD-9" value="" style="edgeStyle=orthogonalEdgeStyle;rounded=0;orthogonalLoop=1;jettySize=auto;html=1;" parent="1" source="zPVBTnU1jTKUKj1PquRD-4" target="zPVBTnU1jTKUKj1PquRD-8" edge="1">
          <mxGeometry relative="1" as="geometry" />
        </mxCell>
        <mxCell id="zPVBTnU1jTKUKj1PquRD-4" value="VideoList Screen" style="whiteSpace=wrap;html=1;aspect=fixed;" parent="1" vertex="1">
          <mxGeometry x="230" y="671" width="120" height="120" as="geometry" />
        </mxCell>
        <mxCell id="zPVBTnU1jTKUKj1PquRD-31" style="edgeStyle=orthogonalEdgeStyle;rounded=0;orthogonalLoop=1;jettySize=auto;html=1;exitX=0.5;exitY=1;exitDx=0;exitDy=0;entryX=0;entryY=0.5;entryDx=0;entryDy=0;fontSize=12;" parent="1" source="zPVBTnU1jTKUKj1PquRD-6" target="zPVBTnU1jTKUKj1PquRD-27" edge="1">
          <mxGeometry relative="1" as="geometry" />
        </mxCell>
        <mxCell id="zPVBTnU1jTKUKj1PquRD-6" value="Play Selected Song&lt;br&gt;Screen" style="whiteSpace=wrap;html=1;aspect=fixed;" parent="1" vertex="1">
          <mxGeometry x="430" y="291" width="120" height="120" as="geometry" />
        </mxCell>
        <mxCell id="zPVBTnU1jTKUKj1PquRD-14" style="edgeStyle=orthogonalEdgeStyle;rounded=0;orthogonalLoop=1;jettySize=auto;html=1;exitX=0.5;exitY=0;exitDx=0;exitDy=0;entryX=0;entryY=0.5;entryDx=0;entryDy=0;fontSize=18;" parent="1" source="zPVBTnU1jTKUKj1PquRD-8" target="zPVBTnU1jTKUKj1PquRD-12" edge="1">
          <mxGeometry relative="1" as="geometry" />
        </mxCell>
        <mxCell id="zPVBTnU1jTKUKj1PquRD-24" value="" style="edgeStyle=orthogonalEdgeStyle;rounded=0;orthogonalLoop=1;jettySize=auto;html=1;fontSize=12;" parent="1" source="zPVBTnU1jTKUKj1PquRD-8" target="zPVBTnU1jTKUKj1PquRD-23" edge="1">
          <mxGeometry relative="1" as="geometry" />
        </mxCell>
        <mxCell id="zPVBTnU1jTKUKj1PquRD-8" value="Play Selected Video" style="whiteSpace=wrap;html=1;aspect=fixed;" parent="1" vertex="1">
          <mxGeometry x="430" y="671" width="120" height="120" as="geometry" />
        </mxCell>
        <mxCell id="zPVBTnU1jTKUKj1PquRD-18" value="Yes" style="edgeStyle=orthogonalEdgeStyle;rounded=0;orthogonalLoop=1;jettySize=auto;html=1;fontSize=13;" parent="1" source="zPVBTnU1jTKUKj1PquRD-12" target="zPVBTnU1jTKUKj1PquRD-17" edge="1">
          <mxGeometry relative="1" as="geometry" />
        </mxCell>
        <mxCell id="zPVBTnU1jTKUKj1PquRD-22" value="No" style="edgeStyle=orthogonalEdgeStyle;rounded=0;orthogonalLoop=1;jettySize=auto;html=1;exitX=1;exitY=0.5;exitDx=0;exitDy=0;entryX=0.588;entryY=0.071;entryDx=0;entryDy=0;entryPerimeter=0;fontSize=12;" parent="1" source="zPVBTnU1jTKUKj1PquRD-12" target="zPVBTnU1jTKUKj1PquRD-19" edge="1">
          <mxGeometry relative="1" as="geometry" />
        </mxCell>
        <mxCell id="zPVBTnU1jTKUKj1PquRD-12" value="Is Audio Service Running?" style="rhombus;whiteSpace=wrap;html=1;fontSize=18;" parent="1" vertex="1">
          <mxGeometry x="640" y="551" width="340" height="80" as="geometry" />
        </mxCell>
        <mxCell id="zPVBTnU1jTKUKj1PquRD-20" value="" style="edgeStyle=orthogonalEdgeStyle;rounded=0;orthogonalLoop=1;jettySize=auto;html=1;fontSize=13;" parent="1" source="zPVBTnU1jTKUKj1PquRD-17" target="zPVBTnU1jTKUKj1PquRD-19" edge="1">
          <mxGeometry relative="1" as="geometry" />
        </mxCell>
        <mxCell id="zPVBTnU1jTKUKj1PquRD-17" value="Stop Audio Service" style="ellipse;whiteSpace=wrap;html=1;fontSize=18;" parent="1" vertex="1">
          <mxGeometry x="750" y="721" width="120" height="60" as="geometry" />
        </mxCell>
        <mxCell id="zPVBTnU1jTKUKj1PquRD-19" value="Start Video Service(&lt;font style=&quot;font-size: 12px&quot;&gt;by playing selected video&lt;/font&gt;)" style="whiteSpace=wrap;html=1;fontSize=18;" parent="1" vertex="1">
          <mxGeometry x="960" y="716" width="190" height="70" as="geometry" />
        </mxCell>
        <mxCell id="zPVBTnU1jTKUKj1PquRD-23" value="Is User Active in the screen?" style="rhombus;whiteSpace=wrap;html=1;" parent="1" vertex="1">
          <mxGeometry x="370" y="940" width="240" height="70" as="geometry" />
        </mxCell>
        <mxCell id="zPVBTnU1jTKUKj1PquRD-25" value="Yes" style="edgeStyle=orthogonalEdgeStyle;rounded=0;orthogonalLoop=1;jettySize=auto;html=1;fontSize=13;" parent="1" source="zPVBTnU1jTKUKj1PquRD-27" target="zPVBTnU1jTKUKj1PquRD-29" edge="1">
          <mxGeometry relative="1" as="geometry" />
        </mxCell>
        <mxCell id="zPVBTnU1jTKUKj1PquRD-26" value="No" style="edgeStyle=orthogonalEdgeStyle;rounded=0;orthogonalLoop=1;jettySize=auto;html=1;exitX=1;exitY=0.5;exitDx=0;exitDy=0;entryX=0.588;entryY=0.071;entryDx=0;entryDy=0;entryPerimeter=0;fontSize=12;" parent="1" source="zPVBTnU1jTKUKj1PquRD-27" target="zPVBTnU1jTKUKj1PquRD-30" edge="1">
          <mxGeometry relative="1" as="geometry" />
        </mxCell>
        <mxCell id="zPVBTnU1jTKUKj1PquRD-27" value="Is Video Service Running?" style="rhombus;whiteSpace=wrap;html=1;fontSize=18;" parent="1" vertex="1">
          <mxGeometry x="635" y="425" width="340" height="80" as="geometry" />
        </mxCell>
        <mxCell id="zPVBTnU1jTKUKj1PquRD-28" value="" style="edgeStyle=orthogonalEdgeStyle;rounded=0;orthogonalLoop=1;jettySize=auto;html=1;fontSize=13;" parent="1" source="zPVBTnU1jTKUKj1PquRD-29" target="zPVBTnU1jTKUKj1PquRD-30" edge="1">
          <mxGeometry relative="1" as="geometry" />
        </mxCell>
        <mxCell id="zPVBTnU1jTKUKj1PquRD-29" value="Stop Video Service" style="ellipse;whiteSpace=wrap;html=1;fontSize=18;" parent="1" vertex="1">
          <mxGeometry x="745" y="291" width="120" height="60" as="geometry" />
        </mxCell>
        <mxCell id="zPVBTnU1jTKUKj1PquRD-30" value="Start Audio Service(&lt;font style=&quot;font-size: 12px&quot;&gt;by playing selected song&lt;/font&gt;)" style="whiteSpace=wrap;html=1;fontSize=18;" parent="1" vertex="1">
          <mxGeometry x="960" y="283" width="190" height="76" as="geometry" />
        </mxCell>
      </root>
    </mxGraphModel>
  </diagram>
</mxfile>
